<?xml version="1.0" encoding="UTF-8"?>
<!-- Generator: Adobe Illustrator 19.1.1, SVG Export Plug-In . SVG Version: 6.00 Build 0)  -->
<svg version="1.1" id="Layer_1" xmlns="http://www.w3.org/2000/svg" xmlns:xlink="http://www.w3.org/1999/xlink" x="0px" y="0px" width="20px" height="20px" viewBox="0 0 20 20" style="enable-background:new 0 0 20 20;" xml:space="preserve">
<style type="text/css">
	.st0{fill:#FFFFFF;}
</style>
<path class="st0" d="M15,12.4l5,5L17.5,20l-5.1-5c-1.3,0.8-2.8,1.2-4.3,1.2C3.6,16.3,0,12.6,0,8.1C0,3.6,3.6,0,8.1,0  c4.5,0,8.1,3.6,8.1,8.1C16.3,9.6,15.8,11.1,15,12.4z M2.5,8.1c0,3.1,2.5,5.6,5.6,5.6c3.1,0,5.6-2.5,5.6-5.6c0-3.1-2.5-5.6-5.6-5.6  C5,2.4,2.5,5,2.5,8.1L2.5,8.1z"/>
</svg>